.
..............................Site Info...........................

 -   http://www.scenetime.com  *_*   

SceneTime is going to Close sign up on march/1, hurry up! get in before the doors are closed.

     We care to share . Join us on  http://www.scenetime.com 

    Be the first to get new release at  http://www.scenetime.com

        Seed back for speed


...................................NFO:.................................................[pre][IMG]http://i.imgur.com/KLRbE.jpg[/IMG]

*******************************************************************************
             I.Melt.with.You.2011.LIMITED.BRRip.XviD.AC3-PRESTiGE
*******************************************************************************


[color=red]General Information:[/color]

Complete name                            : I.Melt.with.You.2011.LIMITED.BRRip.XviD.AC3-PRESTiGE
Format                                   : AVI
Format/Info                              : Audio Video Interleave
File size                                : 1.82 GiB
Duration                                 : 2h 2mn
Overall bit rate                         : 2 131 Kbps
Language                                 : English
Subs                                     : English Sub (If needed)
Source                                   : 720p-PSYCHD Many THANKS
Encoder                                  : akosipalos

[color=lime]iMDB:[/color] http://www.imdb.com/title/tt1691920/

[color=red]Video[/color]

ID                                       : 0
Format                                   : MPEG-4 Visual
Format profile                           : Advanced Simple@L5
Format settings, BVOP                    : 2
Format settings, QPel                    : No
Format settings, GMC                     : No warppoints
Format settings, Matrix                  : Default (H.263)
Codec ID                                 : XVID
Codec ID/Hint                            : XviD
Duration                                 : 2h 2mn
Bit rate                                 : 1 675 Kbps
Width                                    : 720 pixels
Height                                   : 304 pixels
Display aspect ratio                     : 2.35:1
Frame rate                               : 23.976 fps
Color space                              : YUV
Chroma subsampling                       : 4:2:0
Bit depth                                : 8 bits
Scan type                                : Progressive
Compression mode                         : Lossy
Bits/(Pixel*Frame)                       : 0.319
Stream size                              : 1.43 GiB (79%)
Writing library                          : XviD 1.2.1 (UTC 2008-12-04)

[color=red]Audio[/color]

ID                                       : 1
Format                                   : AC-3
Format/Info                              : Audio Coding 3
Mode extension                           : CM (complete main)
Codec ID                                 : 2000
Duration                                 : 2h 2mn
Bit rate mode                            : Constant
Bit rate                                 : 448 Kbps
Channel(s)                               : 6 channels
Channel positions                        : Front: L C R, Side: L R, LFE
Sampling rate                            : 48.0 KHz
Bit depth                                : 16 bits
Compression mode                         : Lossy
Stream size                              : 392 MiB (21%)
Alignment                                : Aligned on interleaves
Interleave, duration                     : 64 ms (1.53 video frames)
Interleave, preload duration             : 192 ms


[color=red]Plot:[/color]

When four 40-something college friends meet up for their annual reunion, things start to spiral out of control, 
and a pact they made as young men is revisited.  


[color=red]Screens:[/color]

[IMG]http://i.imgur.com/QIUrL.png[/IMG]
[IMG]http://i.imgur.com/VApif.png[/IMG]
[IMG]http://i.imgur.com/9SZ1z.png[/IMG]
[IMG]http://i.imgur.com/WIftl.png[/IMG]


[b][color=red]Release Notes:[/color][/b]

WE DONT RELEASE EVERYTHiNG TO OTHERS SiTES YOU WANT MORE OF OUR STUFF COME FiND US AT .......

WE ARE LOOKING FOR SUPPLiERS BLURAY, CAM, R5, PRE RETAiL DVD GOT SOMETHiNG WE MiGHT LiKE WHEN YOU FiND US TELL US.......


[center][b][color=red]GREETZ:[/color][/b]

Twisted | Bigguy | CTFX | Whitestag13 | THoRN | SANTi | PA4U2C | Jungledave | mtyy
| marsby | cld | Stortrapp | rizal | mannilim | Rock | Ulap | centserick2 | Galactica |
musikera | Tukmol | rock3r | canislupus | sickie | fun2knytz | lilyrose | Dreamer
 RiZAL Team Release | TRiNiTY | LEGi0N | LEGiTiMATE | HiVE-CM8 | BHRG | DTRG 
  CrEwSaDe | Rx | LKRG | THC | aTLas | SiC | AbSurdiTy 

[img]http://i824.photobucket.com/albums/zz161/akosipalos/PRESTiGE-3.png[/img]

[b][color=red]PRESTiGE[/color] is the level of respect at which one is regarded by others....RIzE Above Or Sink Below...[/b]
[/center][/pre]